<svg xmlns="http://www.w3.org/2000/svg" viewBox="0 0 77.89 83.41"><defs><style>.cls-1{fill:#929292;}</style></defs><g id="Layer_2" data-name="Layer 2"><g id="Capa_1" data-name="Capa 1"><path class="cls-1" d="M60,45.81a8.66,8.66,0,0,1,5.15,7.91v4.13a1.22,1.22,0,0,0,2.44,0V53.72A11.1,11.1,0,0,0,61,43.57L47.73,37.89V32.52a13.21,13.21,0,0,0,4.46-9.89V12.42A13.25,13.25,0,0,0,43.77.08a1.24,1.24,0,0,0-1.36.33L40.57,2.49a5.7,5.7,0,0,1-4.22,1.87H32.73a7,7,0,0,0-7,7V18h0v4.64a13.2,13.2,0,0,0,4.46,9.89v5.42L17.09,43.63A11,11,0,0,0,10.3,53.85v4a1.22,1.22,0,0,0,2.44,0v-4a8.64,8.64,0,0,1,5.31-8l6.49-2.82a15.6,15.6,0,0,0,22,7.63c.32-.18.65-.38,1-.59a1.22,1.22,0,1,0-1.35-2,8.39,8.39,0,0,1-.81.5,13.15,13.15,0,0,1-18.59-6.47l3.78-1.65a8.79,8.79,0,0,0,16.78,0L51.13,42a13.07,13.07,0,0,1-1.46,2.67,1.22,1.22,0,0,0,.29,1.7,1.15,1.15,0,0,0,.7.23,1.23,1.23,0,0,0,1-.51A15.91,15.91,0,0,0,53.38,43ZM28.14,22.63V19.1a5.94,5.94,0,0,0,1.6-.55A6,6,0,0,0,31.66,17a1.22,1.22,0,1,0-1.92-1.51,3.53,3.53,0,0,1-1.13.94,3.15,3.15,0,0,1-.47.2V11.39a4.59,4.59,0,0,1,4.59-4.58h3.62a8.15,8.15,0,0,0,6-2.69L43.65,2.7a10.72,10.72,0,0,1,6.1,9.72v2.5a14,14,0,0,1-4.81.85,13.83,13.83,0,0,1-9.63-3.88,1.22,1.22,0,1,0-1.7,1.75,16.26,16.26,0,0,0,11.33,4.58,16.13,16.13,0,0,0,4.8-.72v5.13a10.8,10.8,0,0,1-21.6,0ZM39,44.14a6.35,6.35,0,0,1-6.3-5.57,6.81,6.81,0,0,1,0-.78V34.25a13.2,13.2,0,0,0,12.69,0v3.55A6.31,6.31,0,0,1,39,44.14Z"/><path class="cls-1" d="M49.06,68.52l-6-.87-2.66-5.4a1.65,1.65,0,0,0-3,0l-2.67,5.4-6,.87a1.65,1.65,0,0,0-.92,2.81l4.32,4.21-1,5.93a1.65,1.65,0,0,0,2.39,1.74L39,80.41l5.33,2.8a1.61,1.61,0,0,0,.77.2,1.66,1.66,0,0,0,1-.32,1.64,1.64,0,0,0,.65-1.62l-1-5.93L50,71.33a1.64,1.64,0,0,0-.92-2.81ZM38.25,63.33Zm5.41,10.75a1.62,1.62,0,0,0-.47,1.46L44,80.3l-4.28-2.25a1.65,1.65,0,0,0-1.53,0L33.91,80.3l.82-4.76a1.65,1.65,0,0,0-.48-1.46l-3.46-3.37,4.78-.7a1.68,1.68,0,0,0,1.25-.9L39,64.77l2.14,4.34a1.66,1.66,0,0,0,1.24.9l4.78.7Z"/><path class="cls-1" d="M21.63,68.52l-6-.87L13,62.25a1.65,1.65,0,0,0-3,0l-2.66,5.4-6,.87A1.65,1.65,0,0,0,.5,71.33l4.31,4.21-1,5.93a1.66,1.66,0,0,0,.66,1.62,1.64,1.64,0,0,0,1.74.12l5.33-2.8,5.33,2.8a1.61,1.61,0,0,0,1.74-.12,1.64,1.64,0,0,0,.66-1.62l-1-5.93,4.31-4.21a1.65,1.65,0,0,0-.91-2.81ZM10.81,63.33Zm5.42,10.75a1.65,1.65,0,0,0-.48,1.46l.82,4.76-4.28-2.25a1.67,1.67,0,0,0-1.54,0L6.47,80.3l.82-4.76a1.64,1.64,0,0,0-.47-1.46L3.36,70.71,8.14,70a1.66,1.66,0,0,0,1.24-.9l2.14-4.34,2.14,4.34a1.68,1.68,0,0,0,1.24.9l4.79.7Z"/><path class="cls-1" d="M77.81,69.64a1.65,1.65,0,0,0-1.33-1.12l-6-.87-2.67-5.4a1.65,1.65,0,0,0-3,0l-2.67,5.4-6,.87a1.65,1.65,0,0,0-1.33,1.12,1.62,1.62,0,0,0,.42,1.69l4.31,4.21-1,5.93a1.66,1.66,0,0,0,.66,1.62,1.64,1.64,0,0,0,1.74.12l5.33-2.8,5.33,2.8a1.65,1.65,0,0,0,2.4-1.74l-1-5.93,4.31-4.21a1.66,1.66,0,0,0,.42-1.69ZM65.66,63.33Zm5.41,10.75a1.64,1.64,0,0,0-.47,1.46l.82,4.76-4.28-2.25a1.67,1.67,0,0,0-1.54,0L61.32,80.3l.82-4.76a1.65,1.65,0,0,0-.48-1.46L58.2,70.71,63,70a1.66,1.66,0,0,0,1.24-.9l2.14-4.34,2.14,4.34a1.66,1.66,0,0,0,1.24.9l4.79.7Z"/></g></g></svg>