<svg xmlns="http://www.w3.org/2000/svg" width="199" height="199" viewBox="0 0 199 199">
  <g id="recruiter_dp_place_holder" data-name="recruiter dp place holder" transform="translate(-8972 226)">
    <rect id="Rectangle_354" data-name="Rectangle 354" width="199" height="199" transform="translate(8972 -226)" fill="#fff"/>
    <g id="business-and-trade" transform="translate(9019 -179.178)">
      <path id="Path_163" data-name="Path 163" d="M57.24,7.611,8.962.275A7.786,7.786,0,0,0,2.724,1.988,7.855,7.855,0,0,0,0,7.874v92.559a4.406,4.406,0,0,0,4.393,4.393H18.67V81.764a7.668,7.668,0,0,1,7.688-7.688H37.34a7.668,7.668,0,0,1,7.688,7.688v23.063H63.7V15.211a7.692,7.692,0,0,0-6.458-7.6ZM24.161,64.192H17.572a3.295,3.295,0,1,1,0-6.589h6.589a3.295,3.295,0,1,1,0,6.589Zm0-13.179H17.572a3.295,3.295,0,0,1,0-6.589h6.589a3.295,3.295,0,0,1,0,6.589Zm0-13.179H17.572a3.295,3.295,0,1,1,0-6.589h6.589a3.295,3.295,0,0,1,0,6.589Zm0-13.179H17.572a3.295,3.295,0,1,1,0-6.589h6.589a3.295,3.295,0,1,1,0,6.589ZM46.126,64.192H39.537a3.295,3.295,0,0,1,0-6.589h6.589a3.295,3.295,0,0,1,0,6.589Zm0-13.179H39.537a3.295,3.295,0,0,1,0-6.589h6.589a3.295,3.295,0,0,1,0,6.589Zm0-13.179H39.537a3.295,3.295,0,0,1,0-6.589h6.589a3.295,3.295,0,0,1,0,6.589Zm0-13.179H39.537a3.295,3.295,0,0,1,0-6.589h6.589a3.295,3.295,0,0,1,0,6.589Z" transform="translate(0 0)" fill="#865ddd"/>
      <path id="Path_164" data-name="Path 164" d="M46.778,15.9,15.5,9.351V73.7H45.152a7.7,7.7,0,0,0,7.688-7.688v-42.6A7.65,7.65,0,0,0,46.778,15.9ZM36.367,60.524H29.777a3.295,3.295,0,1,1,0-6.589h6.589a3.295,3.295,0,1,1,0,6.589Zm0-13.179H29.777a3.295,3.295,0,1,1,0-6.589h6.589a3.295,3.295,0,1,1,0,6.589Zm0-13.179H29.777a3.295,3.295,0,1,1,0-6.589h6.589a3.295,3.295,0,1,1,0,6.589Z" transform="translate(52.591 31.124)" fill="#865ddd"/>
    </g>
  </g>
</svg>
