<svg xmlns="http://www.w3.org/2000/svg" viewBox="0 0 2839.75 788"><defs><style>.cls-1{fill:#5d378d;}.cls-2{font-size:9.3px;fill:#1d1d1b;font-family:MyriadPro-Regular, Myriad Pro;}.cls-3{fill:#f6a017;}</style></defs><g id="Layer_2" data-name="Layer 2"><g id="Layer_1-2" data-name="Layer 1"><path class="cls-1" d="M210.36,151.67q45.6,0,79.59,9.6t52.79,26.8q18.78,17.2,18.8,41.19a52.06,52.06,0,0,1-9.6,30q-9.6,14-28,14-12.79,0-21.19-3.6a55.4,55.4,0,0,1-14.8-9.19,84.78,84.78,0,0,0-15.2-10.4q-8-4.8-24.39-7.6t-24.4-2.8q-40.78,0-69.19,17.6a117.17,117.17,0,0,0-43.59,47.59Q96,334.83,96,374q0,38.38,15.6,68.38A122.15,122.15,0,0,0,154.77,490q27.6,17.6,63.59,17.59a212.72,212.72,0,0,0,34.4-2.4q14.39-2.4,24-7.19a147.07,147.07,0,0,0,20-13.6q8.79-7.2,26.39-7.2,20.79,0,32,13.2t11.2,32.39q0,20-22.4,36.39t-58.79,26.4q-36.4,10-78.79,10-63.2,0-109.58-29.2T25.2,486.82Q0,436.42,0,374q0-65.58,26.8-115.58t74.38-78.39Q148.76,151.69,210.36,151.67Z"/><path class="cls-1" d="M455.12,159.67a54,54,0,0,1,28,7.6q12.78,7.62,19.19,22.8L619.89,458.82l-17.6,8,120-275.95q13.59-32,42.4-30.4,20,0,32.39,12.4t12.4,30.8a40.69,40.69,0,0,1-2,12,124.64,124.64,0,0,1-4.4,12L653.49,557.2q-12.81,28.8-40.8,30.4A43.56,43.56,0,0,1,583.5,582q-14-8-21.2-24.8L413.53,227.66q-1.62-4-3.6-10.4a50.9,50.9,0,0,1-2-15.19q0-14.4,12.8-28.4T455.12,159.67Z"/><path class="cls-1" d="M597.13,737.17a8.37,8.37,0,0,1,6,2.39,8.43,8.43,0,0,1,0,11.94,8.37,8.37,0,0,1-6,2.39h-57.3a8.46,8.46,0,0,1-8.7-8.7v-102a8.29,8.29,0,0,1,2.56-6.22,9.17,9.17,0,0,1,6.65-2.48A8.63,8.63,0,0,1,546.4,637a8.15,8.15,0,0,1,2.64,6.22v96.86l-3.58-2.9Z"/><path class="cls-1" d="M664.32,755.59q-14,0-24.47-5.88a41,41,0,0,1-16.2-16.2,47.93,47.93,0,0,1-5.72-23.62q0-15,6.06-25.67a43.07,43.07,0,0,1,15.86-16.37,40.58,40.58,0,0,1,20.72-5.71,39,39,0,0,1,15.77,3.32,42.82,42.82,0,0,1,13.39,9.21,44.82,44.82,0,0,1,9.21,13.82,45.66,45.66,0,0,1,3.58,17.31,7.65,7.65,0,0,1-2.73,5.62,8.82,8.82,0,0,1-6,2.22H627.65l-4.09-14.49h64.12l-3.24,3.07V698a19.13,19.13,0,0,0-4.09-10.49,24.59,24.59,0,0,0-8.78-7,25.45,25.45,0,0,0-11-2.47,30.56,30.56,0,0,0-9.89,1.62,21.34,21.34,0,0,0-8.36,5.2,26.23,26.23,0,0,0-5.8,9.47,41.57,41.57,0,0,0-2.22,14.58,32.86,32.86,0,0,0,3.93,16.37,28.08,28.08,0,0,0,10.57,10.83,29.12,29.12,0,0,0,14.84,3.83,34.94,34.94,0,0,0,10.23-1.27,25.6,25.6,0,0,0,6.82-3.16q2.73-1.87,4.78-3.58a10.52,10.52,0,0,1,5.11-1.54,6.82,6.82,0,0,1,5.12,2.14,7,7,0,0,1,2,5q0,3.75-3.75,6.82a41.07,41.07,0,0,1-12.7,7.84A43.19,43.19,0,0,1,664.32,755.59Z"/><path class="cls-1" d="M719.74,665.21h40.08a7.86,7.86,0,0,1,8,8,7.24,7.24,0,0,1-2.3,5.46,7.9,7.9,0,0,1-5.71,2.22H719.74a7.77,7.77,0,0,1-5.71-2.3,7.56,7.56,0,0,1-2.3-5.55,7.45,7.45,0,0,1,2.3-5.62A7.9,7.9,0,0,1,719.74,665.21ZM737.65,643a8.2,8.2,0,0,1,6.14,2.47,8.63,8.63,0,0,1,2.39,6.23v79.13a10.34,10.34,0,0,0,1,4.94,5.32,5.32,0,0,0,2.81,2.56,10.37,10.37,0,0,0,3.67.68,7.75,7.75,0,0,0,3.32-.68,8.28,8.28,0,0,1,3.5-.68,5,5,0,0,1,3.75,1.87,7.33,7.33,0,0,1,1.71,5.12c0,2.73-1.48,4.94-4.44,6.65a18.73,18.73,0,0,1-9.55,2.56,53.93,53.93,0,0,1-6.82-.51,21.2,21.2,0,0,1-7.59-2.56,15.54,15.54,0,0,1-6-6.57q-2.38-4.51-2.39-12.7V651.74a8.49,8.49,0,0,1,2.47-6.23A8.28,8.28,0,0,1,737.65,643Z"/><path class="cls-1" d="M808.25,649.18a20,20,0,0,1-1.54,7.08,33.49,33.49,0,0,1-4.26,7.76,27.38,27.38,0,0,1-6.05,6.14,11.49,11.49,0,0,1-6.74,2.38,8.72,8.72,0,0,1-4.95-1.36,5,5,0,0,1-2-4.44c0-2.27.76-3.63,2.3-4.09a21.35,21.35,0,0,0,4.18-1.7,9.41,9.41,0,0,0,3.66-3.07,7.34,7.34,0,0,0,1.28-4.27,4.29,4.29,0,0,0-1.53-3.15,5.71,5.71,0,0,0-4.09-1.45,13.12,13.12,0,0,0-2.39.25,6.44,6.44,0,0,0-2.39.94,6.71,6.71,0,0,1-2.56-2,5.16,5.16,0,0,1-.85-3.67,8.31,8.31,0,0,1,2.22-5.71,16.07,16.07,0,0,1,5.37-3.92,15.1,15.1,0,0,1,6.39-1.45,13.41,13.41,0,0,1,10.15,4Q808.25,641.5,808.25,649.18Z"/><path class="cls-1" d="M823.76,739.9a9,9,0,0,1-1.36-5.54c.11-2.1,1.31-3.89,3.58-5.37a7.74,7.74,0,0,1,5-1.28,8.27,8.27,0,0,1,5,2.64,38,38,0,0,0,10.66,8.36,30.41,30.41,0,0,0,14.24,3.07,33.72,33.72,0,0,0,7-1.11,13.54,13.54,0,0,0,6.14-3.41c1.71-1.65,2.56-4.06,2.56-7.25a8.91,8.91,0,0,0-2.73-6.82,20.87,20.87,0,0,0-7.16-4.18q-4.44-1.62-9.55-3-5.46-1.53-11-3.41a41.68,41.68,0,0,1-10-4.86A23.74,23.74,0,0,1,829,700a22.79,22.79,0,0,1-2.82-11.77,21.8,21.8,0,0,1,4.52-13.81,30.16,30.16,0,0,1,11.77-9,38.2,38.2,0,0,1,15.77-3.24,45.73,45.73,0,0,1,10.4,1.28,43.35,43.35,0,0,1,10.58,4,30.1,30.1,0,0,1,8.87,7.16,9.86,9.86,0,0,1,2,5.29q.26,3.06-2.82,5.45a6.8,6.8,0,0,1-4.94,1.54,7.48,7.48,0,0,1-4.78-1.88,21.83,21.83,0,0,0-8.35-6.39,27.9,27.9,0,0,0-11.6-2.31,26.23,26.23,0,0,0-6.74.94,12.9,12.9,0,0,0-5.88,3.33q-2.38,2.38-2.39,7a8.75,8.75,0,0,0,2.82,6.82,22.29,22.29,0,0,0,7.42,4.26,92.42,92.42,0,0,0,10.06,3.07c3.52.92,7,2,10.48,3.24a39,39,0,0,1,9.38,4.86,23.55,23.55,0,0,1,6.83,7.68,23.94,23.94,0,0,1,2.64,11.85,21.63,21.63,0,0,1-4.86,14.24A30.93,30.93,0,0,1,875,752.52a40.37,40.37,0,0,1-15.6,3.07,56.42,56.42,0,0,1-19.36-3.49A35.56,35.56,0,0,1,823.76,739.9Z"/><path class="cls-1" d="M994.47,662.14a36.87,36.87,0,0,1,13.47,2.39,39.56,39.56,0,0,1,10.66,6.05,34,34,0,0,1,7.08,7.59c1.7,2.62,2.56,4.89,2.56,6.82l-3.93.17V671.52a8.7,8.7,0,0,1,2.39-6.14,8,8,0,0,1,6.14-2.56,8.16,8.16,0,0,1,6.14,2.48,8.59,8.59,0,0,1,2.39,6.22v75.21q0,14.49-6.14,23.61a36.14,36.14,0,0,1-16.29,13.39A56.89,56.89,0,0,1,996.69,788a55.49,55.49,0,0,1-10.07-1.11A93.08,93.08,0,0,1,976,784.24a21.36,21.36,0,0,1-6.74-3.07q-3.93-2-5.2-4.77a6,6,0,0,1,.08-5.46c1-2.5,2.5-4,4.44-4.6a10.56,10.56,0,0,1,6.65.51c1.13.34,2.9,1,5.29,1.87a70.1,70.1,0,0,0,8,2.48,34.5,34.5,0,0,0,8.36,1.11q13.64,0,20.55-6.31t6.9-17.23V733.42l2,1.2a16,16,0,0,1-3.24,7.25,31.9,31.9,0,0,1-7,6.73,39.14,39.14,0,0,1-9.72,5,33.49,33.49,0,0,1-11.43,2,39.65,39.65,0,0,1-21.57-6.05A43.19,43.19,0,0,1,958.15,733a54.53,54.53,0,0,1,0-48.26,43.75,43.75,0,0,1,15.09-16.55A38.6,38.6,0,0,1,994.47,662.14ZM997,677.83a26.43,26.43,0,0,0-14.58,4.09A27.37,27.37,0,0,0,972.56,693a37.68,37.68,0,0,0,0,31.72,27.35,27.35,0,0,0,9.89,11.08A26.43,26.43,0,0,0,997,739.9a26.74,26.74,0,0,0,14.66-4,27.46,27.46,0,0,0,9.89-11.09,37.2,37.2,0,0,0,0-31.89,27.5,27.5,0,0,0-9.89-11.08A26.75,26.75,0,0,0,997,677.83Z"/><path class="cls-1" d="M1102.76,755.59q-14,0-24.47-5.88a41.11,41.11,0,0,1-16.2-16.2,47.93,47.93,0,0,1-5.71-23.62q0-15,6-25.67a43.07,43.07,0,0,1,15.86-16.37,40.61,40.61,0,0,1,20.72-5.71,39,39,0,0,1,15.77,3.32,42.82,42.82,0,0,1,13.39,9.21,44.82,44.82,0,0,1,9.21,13.82A45.47,45.47,0,0,1,1141,705.8a7.61,7.61,0,0,1-2.73,5.62,8.81,8.81,0,0,1-6,2.22H1066.1l-4.1-14.49h64.12l-3.24,3.07V698a19.13,19.13,0,0,0-4.09-10.49,24.5,24.5,0,0,0-8.78-7,25.45,25.45,0,0,0-11-2.47,30.56,30.56,0,0,0-9.89,1.62,21.34,21.34,0,0,0-8.36,5.2,26.23,26.23,0,0,0-5.8,9.47,41.82,41.82,0,0,0-2.21,14.58,32.86,32.86,0,0,0,3.92,16.37,28.08,28.08,0,0,0,10.57,10.83,29.15,29.15,0,0,0,14.84,3.83,34.94,34.94,0,0,0,10.23-1.27,25.6,25.6,0,0,0,6.82-3.16q2.73-1.87,4.78-3.58a10.52,10.52,0,0,1,5.11-1.54,6.81,6.81,0,0,1,5.12,2.14,7,7,0,0,1,2,5c0,2.5-1.26,4.77-3.76,6.82a41.07,41.07,0,0,1-12.7,7.84A43.19,43.19,0,0,1,1102.76,755.59Z"/><path class="cls-1" d="M1158.18,665.21h40.08a7.87,7.87,0,0,1,8,8,7.25,7.25,0,0,1-2.31,5.46,7.9,7.9,0,0,1-5.71,2.22h-40.08a7.78,7.78,0,0,1-5.71-2.3,7.6,7.6,0,0,1-2.3-5.55,7.49,7.49,0,0,1,2.3-5.62A7.92,7.92,0,0,1,1158.18,665.21ZM1176.09,643a8.19,8.19,0,0,1,6.14,2.47,8.63,8.63,0,0,1,2.39,6.23v79.13a10.34,10.34,0,0,0,1,4.94,5.32,5.32,0,0,0,2.81,2.56,10.37,10.37,0,0,0,3.67.68,7.83,7.83,0,0,0,3.33-.68,8.2,8.2,0,0,1,3.49-.68,5,5,0,0,1,3.75,1.87,7.33,7.33,0,0,1,1.71,5.12c0,2.73-1.48,4.94-4.43,6.65a18.76,18.76,0,0,1-9.55,2.56,54,54,0,0,1-6.83-.51,21.2,21.2,0,0,1-7.59-2.56,15.54,15.54,0,0,1-6-6.57q-2.39-4.51-2.39-12.7V651.74a8.46,8.46,0,0,1,2.48-6.23A8.24,8.24,0,0,1,1176.09,643Z"/><path class="cls-1" d="M1339.29,663.5a8.16,8.16,0,0,1,6.14,2.48,8.6,8.6,0,0,1,2.39,6.22v73.33q0,15-5.72,24.39a34.14,34.14,0,0,1-15.34,13.73A52.34,52.34,0,0,1,1305,788a69.92,69.92,0,0,1-12.28-1.11,35.52,35.52,0,0,1-10.06-3.16,13,13,0,0,1-5.8-4.6,6.52,6.52,0,0,1-.51-6c.8-2.73,2.16-4.58,4.1-5.54a7,7,0,0,1,6-.26c1.94.79,4.49,1.82,7.68,3.07a29.67,29.67,0,0,0,10.91,1.88,33.26,33.26,0,0,0,14.16-2.73,18.58,18.58,0,0,0,8.78-8.53q3-5.81,3-15V734.28l2.73,4.09a28.32,28.32,0,0,1-7.16,9.38,32,32,0,0,1-10.49,5.8,41.75,41.75,0,0,1-13.39,2,30,30,0,0,1-16.11-4.17,27.36,27.36,0,0,1-10.32-11.6,38.54,38.54,0,0,1-3.58-17V672.2A8.56,8.56,0,0,1,1275,666a8.73,8.73,0,0,1,12.19,0,8.43,8.43,0,0,1,2.47,6.22v46q0,11.25,4.95,16.45t14.67,5.2a22.19,22.19,0,0,0,11.25-2.73,19.58,19.58,0,0,0,7.5-7.58,22.77,22.77,0,0,0,2.73-11.34v-46a8.43,8.43,0,0,1,2.48-6.22A8.21,8.21,0,0,1,1339.29,663.5Z"/><path class="cls-1" d="M1456.11,709a47.36,47.36,0,0,1-6.06,24.13,44.24,44.24,0,0,1-16.28,16.45,47.21,47.21,0,0,1-46,0,44,44,0,0,1-16.37-16.45,47.36,47.36,0,0,1-6.06-24.13q0-13.81,6.06-24.3a45.23,45.23,0,0,1,78.61,0Q1456.11,695.23,1456.11,709Zm-17.06,0a33.67,33.67,0,0,0-3.75-16.29,28.89,28.89,0,0,0-10.14-10.91,26.62,26.62,0,0,0-14.42-4,26.25,26.25,0,0,0-14.23,4,29.54,29.54,0,0,0-10.24,10.91,36,36,0,0,0,0,32.32A28.65,28.65,0,0,0,1396.51,736a26.61,26.61,0,0,0,14.23,3.92,27,27,0,0,0,14.42-3.92,28,28,0,0,0,10.14-10.91A33.4,33.4,0,0,0,1439.05,709Z"/><path class="cls-1" d="M1541.37,664.19a8.24,8.24,0,0,1,6.06,2.47,8.46,8.46,0,0,1,2.47,6.22v44.85q0,17.74-9.89,27.72t-28,10q-17.91,0-27.71-10t-9.81-27.72V672.88a8.6,8.6,0,0,1,2.39-6.22,8.75,8.75,0,0,1,12.19,0,8.43,8.43,0,0,1,2.48,6.22v44.85q0,11.1,5.2,16.55t15.26,5.45q10.23,0,15.52-5.45t5.29-16.55V672.88a8.6,8.6,0,0,1,2.38-6.22A8.15,8.15,0,0,1,1541.37,664.19Z"/><path class="cls-1" d="M1666.2,662.65q11.77,0,18.25,5a26.66,26.66,0,0,1,9.12,13.56,62.91,62.91,0,0,1,2.65,18.76v45.19a8.49,8.49,0,0,1-2.47,6.23,8.28,8.28,0,0,1-6.06,2.47,8.19,8.19,0,0,1-6.14-2.47,8.63,8.63,0,0,1-2.39-6.23V700a35,35,0,0,0-1.62-10.92,15.27,15.27,0,0,0-5.62-7.84q-4-2.9-11.17-2.9a24,24,0,0,0-11.86,2.9,20.55,20.55,0,0,0-8,7.84,21.67,21.67,0,0,0-2.81,10.92v45.19a8.46,8.46,0,0,1-2.48,6.23,8.75,8.75,0,0,1-12.19,0,8.63,8.63,0,0,1-2.39-6.23V636.39a8.63,8.63,0,0,1,2.39-6.23,8.75,8.75,0,0,1,12.19,0,8.46,8.46,0,0,1,2.48,6.23V683l-3.07,1.7a27.61,27.61,0,0,1,4-7.67,34.58,34.58,0,0,1,7-7.17,36.5,36.5,0,0,1,9.29-5.2A30.38,30.38,0,0,1,1666.2,662.65Z"/><path class="cls-1" d="M1727.25,652.25c-3.3,0-5.68-.6-7.16-1.79s-2.22-3.21-2.22-6.06v-2.72c0-2.84.8-4.84,2.39-6s4-1.71,7.16-1.71q5.11,0,7.34,1.79t2.21,5.89v2.72c0,3-.76,5-2.3,6.14S1730.66,652.25,1727.25,652.25Zm8.7,92.94a8.63,8.63,0,0,1-2.39,6.23,8.75,8.75,0,0,1-12.19,0,8.45,8.45,0,0,1-2.47-6.23v-73a8.43,8.43,0,0,1,2.47-6.22,8.73,8.73,0,0,1,12.19,0,8.6,8.6,0,0,1,2.39,6.22Z"/><path class="cls-1" d="M1767.5,753.89a8.19,8.19,0,0,1-6.14-2.47,8.59,8.59,0,0,1-2.39-6.23V672.88a8.56,8.56,0,0,1,2.39-6.22,8.75,8.75,0,0,1,12.19,0,8.43,8.43,0,0,1,2.47,6.22V692l-1.7-7.33a30.17,30.17,0,0,1,4.18-8.87,32.22,32.22,0,0,1,6.73-7.16,30.7,30.7,0,0,1,18.93-6.48,12.6,12.6,0,0,1,7.68,2.39,7.17,7.17,0,0,1,3.24,6q0,4.61-2.39,6.73a7.71,7.71,0,0,1-5.29,2.13,11.58,11.58,0,0,1-4.94-1.1,13.28,13.28,0,0,0-5.63-1.11,16.31,16.31,0,0,0-7.33,1.87,21.34,21.34,0,0,0-6.82,5.55,28.24,28.24,0,0,0-4.87,8.61,32.48,32.48,0,0,0-1.79,11.08v40.93a8.45,8.45,0,0,1-2.47,6.23A8.27,8.27,0,0,1,1767.5,753.89Z"/><path class="cls-1" d="M1867.43,755.59q-14,0-24.47-5.88a41.11,41.11,0,0,1-16.2-16.2,47.93,47.93,0,0,1-5.71-23.62q0-15,6-25.67A43.14,43.14,0,0,1,1843,667.85a40.61,40.61,0,0,1,20.72-5.71,39,39,0,0,1,15.78,3.32,42.77,42.77,0,0,1,13.38,9.21,44.47,44.47,0,0,1,9.21,13.82,45.28,45.28,0,0,1,3.58,17.31,7.61,7.61,0,0,1-2.73,5.62,8.8,8.8,0,0,1-6,2.22h-66.17l-4.09-14.49h64.12l-3.24,3.07V698a19.14,19.14,0,0,0-4.1-10.49,24.41,24.41,0,0,0-8.78-7,25.42,25.42,0,0,0-11-2.47,30.56,30.56,0,0,0-9.89,1.62,21.41,21.41,0,0,0-8.36,5.2,26.21,26.21,0,0,0-5.79,9.47,41.57,41.57,0,0,0-2.22,14.58,32.86,32.86,0,0,0,3.92,16.37,28.11,28.11,0,0,0,10.58,10.83,29.08,29.08,0,0,0,14.83,3.83,34.89,34.89,0,0,0,10.23-1.27,25.6,25.6,0,0,0,6.82-3.16c1.82-1.25,3.42-2.44,4.78-3.58a10.55,10.55,0,0,1,5.12-1.54,6.8,6.8,0,0,1,5.11,2.14,7,7,0,0,1,2,5q0,3.75-3.75,6.82a41.13,41.13,0,0,1-12.71,7.84A43.19,43.19,0,0,1,1867.43,755.59Z"/><path class="cls-1" d="M1996.87,627.69a8.33,8.33,0,0,1,8.53,8.7v108.8a8.46,8.46,0,0,1-2.48,6.23,8.75,8.75,0,0,1-12.19,0,8.63,8.63,0,0,1-2.39-6.23V732.91l3.41.17a13.11,13.11,0,0,1-2.47,6.91,33.76,33.76,0,0,1-6.74,7.42,36.06,36.06,0,0,1-10.06,5.88,33.28,33.28,0,0,1-12.45,2.3,38.24,38.24,0,0,1-21.06-6.05A42.45,42.45,0,0,1,1924.05,733a56.05,56.05,0,0,1,0-48.26,42.93,42.93,0,0,1,14.75-16.55,38.58,38.58,0,0,1,34.11-3.66,39.23,39.23,0,0,1,10.83,6.14,33.46,33.46,0,0,1,7.25,7.93,14.94,14.94,0,0,1,2.64,7.93l-5.29.51V636.39a8.63,8.63,0,0,1,2.39-6.23A8.19,8.19,0,0,1,1996.87,627.69ZM1962.08,739.9a24.53,24.53,0,0,0,14.07-4.09,27.78,27.78,0,0,0,9.46-11.08,38.59,38.59,0,0,0,0-31.72,27.81,27.81,0,0,0-9.46-11.09,26.09,26.09,0,0,0-28.05,0,27.47,27.47,0,0,0-9.55,11.09,38.48,38.48,0,0,0,0,31.72,27.44,27.44,0,0,0,9.55,11.08A24.6,24.6,0,0,0,1962.08,739.9Z"/><text class="cls-2" transform="translate(1449.83 503.94)"> </text><path class="cls-3" d="M927.29,164.25a54,54,0,0,1,28,7.61q12.82,7.62,19.24,22.83l117.77,269.2-17.63,8,120.18-276.4q13.6-32.06,42.46-30.45,20,0,32.44,12.41t12.42,30.85a40.32,40.32,0,0,1-2,12,126.86,126.86,0,0,1-4.4,12L1126,562.44q-12.83,28.84-40.87,30.44a43.74,43.74,0,0,1-29.25-5.6q-14-8-21.22-24.84l-149-330.09q-1.61-4-3.61-10.41a51.15,51.15,0,0,1-2-15.22q0-14.43,12.82-28.45T927.29,164.25Z"/><path class="cls-3" d="M1462.48,544q0,20.84-14,34.85t-34.84,14q-20,0-33.65-14T1366.34,544V48.87q0-20.82,14-34.84t34.86-14q20.82,0,34,14t13.22,34.84Z"/><path class="cls-3" d="M1949.19,263.2q-29.25-50.07-78.52-78.52t-110.16-28.45q-60.88,0-110.16,28.45t-78.52,78.52q-29.25,50.08-29.24,115.76t29.24,115.78q29.24,50.09,78.52,78.11t110.16,28q60.88,0,110.16-28t78.52-78.11q29.25-50.07,29.25-115.78T1949.19,263.2Zm-96.68,140.37-121.42,70.1a31.61,31.61,0,0,1-47.41-27.37V306.1a31.61,31.61,0,0,1,47.41-27.37l121.42,70.1C1873.57,361,1873.57,391.4,1852.51,403.57Z"/><path class="cls-3" d="M2232.4,156.23q33.66,0,61.69,10.43t48.47,26.43q20.45,16,32.06,32.45t11.61,27.64l-20.82,10.41V205.1q0-20.82,13.61-34.84t34.45-14q20.84,0,34.46,13.62t13.62,35.25V561.63q0,69.71-30,111.78t-78.93,60.88q-48.89,18.81-104.95,18.83-16,0-41.67-4t-48.87-9.6q-23.24-5.64-35.25-10.43-24-10.43-33.25-26t-3.6-33.25q7.2-23.25,23.23-31.65t33.65-2q8,2.37,26.44,9.6A402.46,402.46,0,0,0,2208.77,659q22,6,38.86,6,60.09,0,88.94-24t28.84-66.51v-69.7L2375,512q0,10.43-10.82,25.24t-29.63,29.24q-18.84,14.43-44.47,24.43a148.55,148.55,0,0,1-54.48,10q-56.88,0-102.55-28.44T2061,493.93q-26.44-50.06-26.44-115,0-65.68,26.44-115.76t71.3-78.52Q2177.11,156.23,2232.4,156.23Zm15.23,88.14q-36.06,0-63.29,17.63t-42.47,48.06q-15.23,30.45-15.22,68.9,0,37.67,15.22,68.11t42.47,48.07q27.22,17.63,63.29,17.62,36.85,0,64.1-17.62t42.46-48.07q15.21-30.45,15.22-68.11,0-38.44-15.22-68.9T2311.73,262Q2284.48,244.38,2247.63,244.37Z"/><path class="cls-3" d="M2505.48,525.62q-8.11-11.32-7.29-29.14t21-30.75a43.87,43.87,0,0,1,27.51-6.89q14.58,1.23,28.34,15,23.44,23.48,49.36,36.42t64.76,13a216.42,216.42,0,0,0,26.71-3.64,51.13,51.13,0,0,0,25.49-12.95q10.93-10.11,10.93-31.17,0-17.81-12.15-28.32t-32-17.81q-19.84-7.29-44.12-13.76-25.09-7.29-51.4-16.19a214.84,214.84,0,0,1-48.16-23.06,110.79,110.79,0,0,1-35.61-37.64q-13.77-23.49-13.76-59.09,0-40.45,22.67-68.8t58.67-43.7a190.88,190.88,0,0,1,75.69-15.39,244.3,244.3,0,0,1,52.61,6.08,206.24,206.24,0,0,1,52.61,19.43,130,130,0,0,1,42.09,35.2q8.89,12.15,10.52,29.15t-15.38,30.75q-12.13,9.72-28.32,8.49t-26.71-10.92q-13.77-17.81-36.84-28.32t-53-10.53a135.23,135.23,0,0,0-26.31,2.83A51.91,51.91,0,0,0,2618.79,246q-10.53,9.33-10.52,29.54,0,18.63,12.13,29.55t32.78,17.81q20.64,6.87,44.12,13.35,24.28,6.48,49.37,15.37a195.91,195.91,0,0,1,46.14,23.48,111.69,111.69,0,0,1,34,37.64q12.93,23.07,12.94,58.68,0,41.28-24.28,70.42t-60.7,44.11a194.47,194.47,0,0,1-74.47,15q-47.76,0-95.51-16.6T2505.48,525.62Z"/></g></g></svg>